<?xml version="1.0" standalone="no"?>
<!DOCTYPE svg PUBLIC "-//W3C//DTD SVG 20010904//EN"
 "http://www.w3.org/TR/2001/REC-SVG-20010904/DTD/svg10.dtd">
<svg version="1.0" xmlns="http://www.w3.org/2000/svg"
 width="300.000000pt" height="300.000000pt" viewBox="0 0 300.000000 300.000000"
 preserveAspectRatio="xMidYMid meet">

<g transform="translate(0.000000,300.000000) scale(0.100000,-0.100000)"
fill="#000000" stroke="none">
<path d="M923 2543 l-563 -325 0 -653 c0 -510 3 -655 13 -662 6 -6 136 -81
287 -168 151 -87 313 -181 360 -208 47 -27 126 -72 175 -100 l90 -52 -230 -12
c-126 -7 -288 -19 -358 -28 -381 -48 -345 -106 95 -152 209 -22 1153 -25 1368
-5 212 20 361 47 400 72 24 15 -7 38 -71 55 -105 28 -522 65 -729 65 -40 0
-43 1 -25 14 18 12 289 168 727 419 l178 102 -3 659 -2 658 -560 324 c-308
178 -567 323 -575 323 -8 0 -268 -147 -577 -326z m1029 -118 c244 -140 443
-260 443 -266 0 -5 -43 -33 -95 -60 -52 -28 -144 -77 -204 -110 -59 -33 -111
-59 -115 -57 -4 2 -111 63 -238 136 -127 72 -236 132 -243 132 -8 0 -119 -61
-247 -136 l-234 -135 -117 64 c-64 36 -153 84 -197 107 -44 23 -86 48 -93 54
-9 9 85 68 430 268 244 141 448 256 455 257 6 1 211 -114 455 -254z m-240
-488 c71 -40 128 -74 128 -77 0 -3 -76 -48 -170 -99 l-169 -93 -171 94 c-93
51 -170 95 -170 98 0 3 26 19 58 36 31 17 108 61 171 97 l115 66 40 -25 c23
-13 98 -57 168 -97z m-971 2 l199 -111 0 -529 c0 -291 -2 -529 -5 -529 -2 0
-42 22 -87 49 -46 27 -101 59 -123 71 -22 12 -75 43 -117 67 l-78 45 0 524 c0
288 3 524 6 524 3 0 95 -50 205 -111z m1739 -413 c0 -419 -2 -516 -13 -525
-17 -13 -395 -231 -402 -231 -3 0 -5 237 -5 528 l0 527 203 112 c111 61 205
109 210 106 4 -2 7 -235 7 -517z m-550 95 l0 -128 -180 -102 c-100 -55 -183
-101 -185 -101 -3 0 -5 58 -5 130 l0 129 38 22 c213 120 318 178 325 178 4 1
7 -57 7 -128z m-2 -402 l-3 -121 -182 -103 -183 -103 0 123 0 123 68 36 c37
19 117 65 177 100 61 36 114 65 118 65 4 1 6 -53 5 -120z m2 -398 l0 -129
-152 -87 c-84 -49 -168 -97 -186 -107 l-33 -20 3 133 3 134 180 102 c99 56
181 103 183 103 1 0 2 -58 2 -129z"/>
</g>
</svg>
